<svg width="170" height="170" viewBox="0 0 170 170" fill="none" xmlns="http://www.w3.org/2000/svg">
<path d="M85.8501 46.75C126.104 46.75 158.1 38.1438 158.1 27.625C158.1 17.1062 126.104 8.5 85.8501 8.5C45.5965 8.5 13.6001 17.1062 13.6001 27.625C13.6001 38.1438 45.5965 46.75 85.8501 46.75ZM85.8501 132.812C45.5965 132.812 13.6001 124.206 13.6001 113.688V142.375C13.6001 152.894 45.5965 161.5 85.8501 161.5C126.104 161.5 158.1 152.894 158.1 142.375V113.688C158.1 124.206 126.104 132.812 85.8501 132.812ZM85.8501 94.5625C45.5965 94.5625 13.6001 85.9563 13.6001 75.4375V104.125C13.6001 114.644 45.5965 123.25 85.8501 123.25C126.104 123.25 158.1 114.644 158.1 104.125V75.4375C158.1 85.9563 126.104 94.5625 85.8501 94.5625ZM85.8501 56.3125C45.5965 56.3125 13.6001 47.7063 13.6001 37.1875V65.875C13.6001 76.3938 45.5965 85 85.8501 85C126.104 85 158.1 76.3938 158.1 65.875V37.1875C158.1 47.7063 126.104 56.3125 85.8501 56.3125Z" fill="#0049A6"/>
</svg>
