<svg width="170" height="170" viewBox="0 0 170 170" fill="none" xmlns="http://www.w3.org/2000/svg">
<path d="M167.429 105.554C156.081 151.13 109.953 178.797 64.4459 167.455C18.9284 156.193 -8.79753 109.953 2.57122 64.4937C13.8922 18.9284 60.0472 -8.79753 105.527 2.54466C151.072 13.9187 178.797 60.0206 167.429 105.586V105.554ZM122.464 72.8822C124.148 61.6197 115.542 55.5368 103.758 51.4409L107.583 36.1887L98.2547 33.8353L94.5518 48.7793C92.1134 48.1418 89.574 47.5893 87.024 47.0103L90.7375 31.9281L81.3822 29.6065L77.5625 44.9331L71.6125 43.5253L58.7775 40.3112L56.2859 50.304C56.2859 50.304 63.2081 51.8765 63.0381 51.9615C66.8365 52.9337 67.5218 55.3881 67.4156 57.3856L56.9553 99.3278C56.4293 100.497 55.2393 102.212 52.615 101.543C52.7 101.676 45.8097 99.859 45.8097 99.859L41.1347 110.532L53.2525 113.549L59.8346 115.265L55.9884 130.794L65.3437 133.089L69.19 117.73C71.7347 118.453 74.1678 119.085 76.6009 119.669L73.0097 134.911L82.3597 137.264L86.2059 121.747C102.085 124.759 114.043 123.569 119.08 109.182C123.117 97.5853 118.851 90.9234 110.473 86.5512C116.503 85.1647 121.098 81.1537 122.368 72.8822H122.464ZM101.129 102.792C98.2812 114.41 78.7737 108.104 72.4412 106.526L77.5572 85.9987C83.895 87.6297 104.146 90.7534 101.129 102.792ZM104.04 72.744C101.405 83.3106 85.1912 77.9715 79.9053 76.6381L84.559 57.9381C89.8131 59.2078 106.771 61.6409 104.04 72.7122V72.744Z" fill="#D6A700"/>
</svg>
