<svg width="170" height="170" viewBox="0 0 170 170" fill="none" xmlns="http://www.w3.org/2000/svg">
<path d="M7.56 148.75H97.5C101.635 148.75 105 145.175 105 140.781V39.8438C105 39.7216 104.95 39.6153 104.935 39.4984C104.921 39.3871 104.899 39.277 104.87 39.1691C104.772 38.7163 104.561 38.2998 104.26 37.9631L69.265 0.780937C68.8685 0.382919 68.3617 0.131404 67.82 0.06375C67.715 0.053125 67.615 0 67.5 0H7.53C3.38 0 0 3.57531 0 7.96875V140.781C0 145.175 3.39 148.75 7.56 148.75ZM70 9.06844L96.465 37.1875H72.5C71.837 37.1875 71.2011 36.9076 70.7322 36.4095C70.2634 35.9114 70 35.2357 70 34.5312V9.06844ZM5 7.96875C5 6.5025 6.135 5.3125 7.53 5.3125H65V34.5312C65 38.9247 68.365 42.5 72.5 42.5H100V140.781C100 141.486 99.7366 142.161 99.2678 142.66C98.7989 143.158 98.163 143.438 97.5 143.438H7.56C7.22775 143.442 6.89797 143.376 6.5895 143.245C6.28103 143.114 5.9999 142.919 5.76218 142.673C5.52446 142.426 5.33479 142.132 5.20402 141.808C5.07324 141.483 5.00392 141.134 5 140.781V7.96875Z" fill="#A60063"/>
<path d="M22.5 63.75H82.5C83.163 63.75 83.7989 63.4701 84.2678 62.972C84.7366 62.4739 85 61.7982 85 61.0938C85 60.3893 84.7366 59.7136 84.2678 59.2155C83.7989 58.7174 83.163 58.4375 82.5 58.4375H22.5C21.837 58.4375 21.2011 58.7174 20.7322 59.2155C20.2634 59.7136 20 60.3893 20 61.0938C20 61.7982 20.2634 62.4739 20.7322 62.972C21.2011 63.4701 21.837 63.75 22.5 63.75V63.75Z" fill="#A60063"/>
<path d="M22.5 85H82.5C83.163 85 83.7989 84.7201 84.2678 84.222C84.7366 83.7239 85 83.0482 85 82.3438C85 81.6393 84.7366 80.9636 84.2678 80.4655C83.7989 79.9674 83.163 79.6875 82.5 79.6875H22.5C21.837 79.6875 21.2011 79.9674 20.7322 80.4655C20.2634 80.9636 20 81.6393 20 82.3438C20 83.0482 20.2634 83.7239 20.7322 84.222C21.2011 84.7201 21.837 85 22.5 85V85Z" fill="#A60063"/>
<path d="M22.5 42.5H47.5C48.163 42.5 48.7989 42.2201 49.2678 41.722C49.7366 41.2239 50 40.5482 50 39.8438C50 39.1393 49.7366 38.4636 49.2678 37.9655C48.7989 37.4674 48.163 37.1875 47.5 37.1875H22.5C21.837 37.1875 21.2011 37.4674 20.7322 37.9655C20.2634 38.4636 20 39.1393 20 39.8438C20 40.5482 20.2634 41.2239 20.7322 41.722C21.2011 42.2201 21.837 42.5 22.5 42.5V42.5Z" fill="#A60063"/>
<path d="M22.5 106.25H82.5C83.163 106.25 83.7989 105.97 84.2678 105.472C84.7366 104.974 85 104.298 85 103.594C85 102.889 84.7366 102.214 84.2678 101.715C83.7989 101.217 83.163 100.938 82.5 100.938H22.5C21.837 100.938 21.2011 101.217 20.7322 101.715C20.2634 102.214 20 102.889 20 103.594C20 104.298 20.2634 104.974 20.7322 105.472C21.2011 105.97 21.837 106.25 22.5 106.25V106.25Z" fill="#A60063"/>
<path d="M22.5 127.5H82.5C83.163 127.5 83.7989 127.22 84.2678 126.722C84.7366 126.224 85 125.548 85 124.844C85 124.139 84.7366 123.464 84.2678 122.965C83.7989 122.467 83.163 122.188 82.5 122.188H22.5C21.837 122.188 21.2011 122.467 20.7322 122.965C20.2634 123.464 20 124.139 20 124.844C20 125.548 20.2634 126.224 20.7322 126.722C21.2011 127.22 21.837 127.5 22.5 127.5V127.5Z" fill="#A60063"/>
<path d="M107.5 26.5625H130V55.7812C130 60.1747 133.365 63.75 137.5 63.75H165V162.031C165 162.736 164.737 163.411 164.268 163.91C163.799 164.408 163.163 164.688 162.5 164.688H72.56C72.2277 164.692 71.898 164.626 71.5895 164.495C71.281 164.364 70.9999 164.169 70.7622 163.923C70.5245 163.676 70.3348 163.382 70.204 163.058C70.0732 162.733 70.0039 162.384 70 162.031V156.719C70 156.014 69.7366 155.339 69.2678 154.84C68.7989 154.342 68.163 154.062 67.5 154.062C66.837 154.062 66.2011 154.342 65.7322 154.84C65.2634 155.339 65 156.014 65 156.719V162.031C65 166.425 68.39 170 72.56 170H162.5C166.635 170 170 166.425 170 162.031V61.0938C170 60.9716 169.95 60.8653 169.935 60.7484C169.921 60.6371 169.899 60.527 169.87 60.4191C169.772 59.9663 169.561 59.5498 169.26 59.2131L134.265 22.0309C133.871 21.6296 133.363 21.3791 132.82 21.3191C132.715 21.3031 132.615 21.25 132.5 21.25H107.5C106.837 21.25 106.201 21.5299 105.732 22.028C105.263 22.5261 105 23.2018 105 23.9062C105 24.6107 105.263 25.2864 105.732 25.7845C106.201 26.2826 106.837 26.5625 107.5 26.5625ZM137.5 58.4375C136.837 58.4375 136.201 58.1576 135.732 57.6595C135.263 57.1614 135 56.4857 135 55.7812V30.3184L161.465 58.4375H137.5Z" fill="#A60063"/>
<path d="M117.5 85H147.5C148.163 85 148.799 84.7201 149.268 84.222C149.737 83.7239 150 83.0482 150 82.3438C150 81.6393 149.737 80.9636 149.268 80.4655C148.799 79.9674 148.163 79.6875 147.5 79.6875H117.5C116.837 79.6875 116.201 79.9674 115.732 80.4655C115.263 80.9636 115 81.6393 115 82.3438C115 83.0482 115.263 83.7239 115.732 84.222C116.201 84.7201 116.837 85 117.5 85Z" fill="#A60063"/>
<path d="M117.5 106.25H147.5C148.163 106.25 148.799 105.97 149.268 105.472C149.737 104.974 150 104.298 150 103.594C150 102.889 149.737 102.214 149.268 101.715C148.799 101.217 148.163 100.938 147.5 100.938H117.5C116.837 100.938 116.201 101.217 115.732 101.715C115.263 102.214 115 102.889 115 103.594C115 104.298 115.263 104.974 115.732 105.472C116.201 105.97 116.837 106.25 117.5 106.25Z" fill="#A60063"/>
<path d="M117.5 127.5H147.5C148.163 127.5 148.799 127.22 149.268 126.722C149.737 126.224 150 125.548 150 124.844C150 124.139 149.737 123.464 149.268 122.965C148.799 122.467 148.163 122.188 147.5 122.188H117.5C116.837 122.188 116.201 122.467 115.732 122.965C115.263 123.464 115 124.139 115 124.844C115 125.548 115.263 126.224 115.732 126.722C116.201 127.22 116.837 127.5 117.5 127.5Z" fill="#A60063"/>
<path d="M117.5 148.75H147.5C148.163 148.75 148.799 148.47 149.268 147.972C149.737 147.474 150 146.798 150 146.094C150 145.389 149.737 144.714 149.268 144.215C148.799 143.717 148.163 143.438 147.5 143.438H117.5C116.837 143.438 116.201 143.717 115.732 144.215C115.263 144.714 115 145.389 115 146.094C115 146.798 115.263 147.474 115.732 147.972C116.201 148.47 116.837 148.75 117.5 148.75Z" fill="#A60063"/>
</svg>
