<svg width="170" height="170" viewBox="0 0 170 170" fill="none" xmlns="http://www.w3.org/2000/svg">
<path d="M163.027 106.25H155.059L149.414 41.1719C149.193 35.638 147.035 30.9342 142.939 27.0605C138.844 23.1868 134.141 21.25 128.828 21.25H91.9727V6.97266C91.9727 2.32422 89.6484 0 85 0C80.3516 0 78.0273 2.32422 78.0273 6.97266V21.25H41.1719C35.8594 21.25 31.1556 23.1868 27.0605 27.0605C22.9655 30.9342 20.8073 35.638 20.5859 41.1719L14.9414 106.25H6.97266C4.98047 106.25 3.32031 106.914 1.99219 108.242C0.664062 109.57 0 111.23 0 113.223C0 115.436 0.664062 117.207 1.99219 118.535C3.32031 119.863 4.98047 120.527 6.97266 120.527H33.2031L21.25 160.703C20.5859 162.474 20.8073 164.245 21.9141 166.016C23.0208 167.786 24.4596 168.893 26.2305 169.336H28.2227C31.1003 169.336 33.5352 167.676 35.5273 164.355L48.1445 120.527H78.0273V148.75C78.0273 153.398 80.3516 155.723 85 155.723C89.6484 155.723 91.9727 153.398 91.9727 148.75V120.527H121.855L134.473 165.02C135.137 168.34 137.572 170 141.777 170H143.77C147.975 168.451 149.635 165.573 148.75 161.367L136.797 120.527H163.027C165.02 120.527 166.68 119.863 168.008 118.535C169.336 117.207 170 115.436 170 113.223C170 111.23 169.336 109.57 168.008 108.242C166.68 106.914 165.02 106.25 163.027 106.25ZM28.8867 106.25L34.8633 41.8359C34.8633 40.0651 35.5827 38.571 37.0215 37.3535C38.4603 36.1361 40.0651 35.5273 41.8359 35.5273H128.828C130.82 35.5273 132.536 36.1361 133.975 37.3535C135.413 38.571 136.133 40.0651 136.133 41.8359L141.777 106.25H28.8867ZM107.578 45.4883C96.7318 59.8763 90.8659 67.6237 89.9805 68.7305C82.2331 63.418 77.0312 59.8763 74.375 58.1055L69.3945 53.7891L43.8281 87.9883C42.7214 89.3164 42.334 91.0319 42.666 93.1348C42.998 95.2376 43.9388 96.7318 45.4883 97.6172C47.0378 98.724 48.3659 99.2773 49.4727 99.2773C52.1289 99.2773 54.0104 98.2812 55.1172 96.2891L72.3828 73.7109C80.7943 79.4661 86.0514 82.8971 88.1543 84.0039C90.2572 85.1107 92.0833 85.4427 93.6328 85L96.2891 84.3359L97.6172 82.0117C98.2812 81.1263 99.7754 79.1895 102.1 76.2012C104.424 73.2129 107.246 69.3945 110.566 64.7461C113.887 60.0977 116.432 56.6667 118.203 54.4531C119.31 53.125 119.753 51.4095 119.531 49.3066C119.31 47.2038 118.424 45.599 116.875 44.4922C115.768 43.1641 114.219 42.6107 112.227 42.832C110.234 43.0534 108.685 43.9388 107.578 45.4883Z" fill="#00AC4F"/>
</svg>
