<svg width="20" height="20" viewBox="0 0 20 20" fill="none" xmlns="http://www.w3.org/2000/svg">
<path d="M18.4863 9.86278L10.4414 1.82371C10.3835 1.76568 10.3147 1.71963 10.2389 1.68821C10.1632 1.6568 10.082 1.64062 10 1.64062C9.918 1.64062 9.83681 1.6568 9.76106 1.68821C9.68532 1.71963 9.61652 1.76568 9.55859 1.82371L1.51367 9.86278C1.2793 10.0972 1.14648 10.4155 1.14648 10.7475C1.14648 11.437 1.70703 11.9975 2.39648 11.9975H3.24414V17.7339C3.24414 18.0796 3.52344 18.3589 3.86914 18.3589H8.75V13.9839H10.9375V18.3589H16.1309C16.4766 18.3589 16.7559 18.0796 16.7559 17.7339V11.9975H17.6035C17.9355 11.9975 18.2539 11.8667 18.4883 11.6304C18.9746 11.1421 18.9746 10.3511 18.4863 9.86278Z" fill="#515151"/>
</svg>
